<mxfile host="Electron" modified="2023-12-29T08:44:48.965Z" agent="Mozilla/5.0 (X11; Linux x86_64) AppleWebKit/537.36 (KHTML, like Gecko) draw.io/22.1.11 Chrome/114.0.5735.289 Electron/25.9.8 Safari/537.36" etag="75HpSxhReD5OrwPF1Fbt" version="22.1.11" type="device">
  <diagram name="Page-1" id="GIl1BdKgMbYKWTe6OWiq">
    <mxGraphModel dx="649" dy="338" grid="1" gridSize="10" guides="1" tooltips="1" connect="1" arrows="1" fold="1" page="1" pageScale="1" pageWidth="850" pageHeight="1100" math="0" shadow="0">
      <root>
        <mxCell id="0" />
        <mxCell id="1" parent="0" />
        <mxCell id="TuAtHYuRZ2ULCIViFn6H-13" value="" style="rounded=1;whiteSpace=wrap;html=1;fillColor=#f8cecc;strokeColor=#b85450;" parent="1" vertex="1">
          <mxGeometry x="100" y="220" width="190" height="90" as="geometry" />
        </mxCell>
        <mxCell id="TuAtHYuRZ2ULCIViFn6H-8" value="" style="rounded=1;whiteSpace=wrap;html=1;fillColor=#d5e8d4;strokeColor=#82b366;" parent="1" vertex="1">
          <mxGeometry x="360" y="220" width="190" height="120" as="geometry" />
        </mxCell>
        <mxCell id="TuAtHYuRZ2ULCIViFn6H-1" value="Open Modelica" style="rounded=1;whiteSpace=wrap;html=1;" parent="1" vertex="1">
          <mxGeometry x="405" y="360" width="100" height="40" as="geometry" />
        </mxCell>
        <mxCell id="TuAtHYuRZ2ULCIViFn6H-2" value="Test_DTCONEDAR.mo" style="text;html=1;strokeColor=none;fillColor=none;align=center;verticalAlign=middle;whiteSpace=wrap;rounded=0;" parent="1" vertex="1">
          <mxGeometry x="376" y="427" width="150" height="30" as="geometry" />
        </mxCell>
        <mxCell id="TuAtHYuRZ2ULCIViFn6H-4" value="Test_DTCONEDAR.fmu" style="text;html=1;strokeColor=#00572B;fillColor=#FFFFFF;align=center;verticalAlign=middle;whiteSpace=wrap;rounded=0;" parent="1" vertex="1">
          <mxGeometry x="376" y="297" width="150" height="30" as="geometry" />
        </mxCell>
        <mxCell id="TuAtHYuRZ2ULCIViFn6H-5" style="edgeStyle=orthogonalEdgeStyle;rounded=0;orthogonalLoop=1;jettySize=auto;html=1;" parent="1" edge="1">
          <mxGeometry relative="1" as="geometry">
            <mxPoint x="451" y="354" as="sourcePoint" />
            <mxPoint x="451" y="329" as="targetPoint" />
            <Array as="points">
              <mxPoint x="451" y="357" />
            </Array>
          </mxGeometry>
        </mxCell>
        <mxCell id="TuAtHYuRZ2ULCIViFn6H-7" style="edgeStyle=orthogonalEdgeStyle;rounded=0;orthogonalLoop=1;jettySize=auto;html=1;" parent="1" edge="1">
          <mxGeometry relative="1" as="geometry">
            <mxPoint x="451" y="428" as="sourcePoint" />
            <mxPoint x="451" y="403" as="targetPoint" />
            <Array as="points">
              <mxPoint x="451" y="431" />
            </Array>
          </mxGeometry>
        </mxCell>
        <mxCell id="TuAtHYuRZ2ULCIViFn6H-16" style="edgeStyle=orthogonalEdgeStyle;rounded=0;orthogonalLoop=1;jettySize=auto;html=1;entryX=1;entryY=0.5;entryDx=0;entryDy=0;startArrow=classic;startFill=1;" parent="1" source="TuAtHYuRZ2ULCIViFn6H-9" target="TuAtHYuRZ2ULCIViFn6H-11" edge="1">
          <mxGeometry relative="1" as="geometry" />
        </mxCell>
        <mxCell id="TuAtHYuRZ2ULCIViFn6H-9" value="client-opcua.py&lt;br&gt;(OPC UA Client)" style="text;html=1;align=center;verticalAlign=middle;whiteSpace=wrap;rounded=0;fillColor=default;strokeColor=#00572B;" parent="1" vertex="1">
          <mxGeometry x="392.5" y="225" width="117" height="41" as="geometry" />
        </mxCell>
        <mxCell id="TuAtHYuRZ2ULCIViFn6H-10" style="edgeStyle=orthogonalEdgeStyle;rounded=0;orthogonalLoop=1;jettySize=auto;html=1;" parent="1" edge="1">
          <mxGeometry relative="1" as="geometry">
            <mxPoint x="451" y="292" as="sourcePoint" />
            <mxPoint x="451" y="267" as="targetPoint" />
            <Array as="points">
              <mxPoint x="451" y="295" />
            </Array>
          </mxGeometry>
        </mxCell>
        <mxCell id="TuAtHYuRZ2ULCIViFn6H-11" value="opcua-mock-server.py&lt;br&gt;(OPC UA Server)" style="text;html=1;align=center;verticalAlign=middle;whiteSpace=wrap;rounded=0;fillColor=default;gradientColor=none;strokeColor=#FF6666;" parent="1" vertex="1">
          <mxGeometry x="127" y="225" width="137" height="41" as="geometry" />
        </mxCell>
        <mxCell id="TuAtHYuRZ2ULCIViFn6H-12" value="&lt;b&gt;&lt;font style=&quot;font-size: 16px;&quot; color=&quot;#00572b&quot;&gt;digital twin&lt;/font&gt;&lt;/b&gt;" style="text;html=1;strokeColor=none;fillColor=none;align=center;verticalAlign=middle;whiteSpace=wrap;rounded=0;" parent="1" vertex="1">
          <mxGeometry x="380" y="190" width="150" height="30" as="geometry" />
        </mxCell>
        <mxCell id="TuAtHYuRZ2ULCIViFn6H-14" value="contains:" style="text;whiteSpace=wrap;fontStyle=5" parent="1" vertex="1">
          <mxGeometry x="120" y="349" width="64.5" height="30" as="geometry" />
        </mxCell>
        <mxCell id="TuAtHYuRZ2ULCIViFn6H-15" style="edgeStyle=orthogonalEdgeStyle;rounded=0;orthogonalLoop=1;jettySize=auto;html=1;" parent="1" edge="1">
          <mxGeometry relative="1" as="geometry">
            <mxPoint x="201" y="331" as="sourcePoint" />
            <mxPoint x="201" y="271" as="targetPoint" />
            <Array as="points">
              <mxPoint x="201" y="316" />
              <mxPoint x="201" y="316" />
            </Array>
          </mxGeometry>
        </mxCell>
        <mxCell id="TuAtHYuRZ2ULCIViFn6H-17" value="OPC UA&#xa;protocol" style="text;whiteSpace=wrap;align=center;" parent="1" vertex="1">
          <mxGeometry x="290" y="210" width="70" height="30" as="geometry" />
        </mxCell>
        <mxCell id="TuAtHYuRZ2ULCIViFn6H-18" value="&lt;b&gt;&lt;font color=&quot;#ff6666&quot; style=&quot;font-size: 16px;&quot;&gt;mock physical twin&lt;/font&gt;&lt;/b&gt;" style="text;html=1;strokeColor=none;fillColor=none;align=center;verticalAlign=middle;whiteSpace=wrap;rounded=0;" parent="1" vertex="1">
          <mxGeometry x="120" y="190" width="150" height="30" as="geometry" />
        </mxCell>
        <mxCell id="k6VZeRyDt9537I-b7MQL-3" value="" style="endArrow=classic;html=1;rounded=0;entryX=0;entryY=1;entryDx=0;entryDy=0;" parent="1" edge="1">
          <mxGeometry width="50" height="50" relative="1" as="geometry">
            <mxPoint x="278" y="332" as="sourcePoint" />
            <mxPoint x="390.5" y="266" as="targetPoint" />
          </mxGeometry>
        </mxCell>
        <mxCell id="a6QktLKJx5Bc6dMt5H6x-1" value="configuration_freeopcua.ods" style="text;whiteSpace=wrap;fontStyle=0" vertex="1" parent="1">
          <mxGeometry x="118" y="329" width="184.5" height="30" as="geometry" />
        </mxCell>
        <mxCell id="a6QktLKJx5Bc6dMt5H6x-2" value="* OPC UA nodeids assigned to inputs and outputs of Test_DTCONEDAR.FMU&#xa;* FMU values for:&#xa;  - parameters&#xa;  - initial values of inputs&#xa;  - initial values of local variables" style="text;whiteSpace=wrap;fontStyle=0" vertex="1" parent="1">
          <mxGeometry x="120" y="371" width="220" height="30" as="geometry" />
        </mxCell>
        <mxCell id="a6QktLKJx5Bc6dMt5H6x-5" value="create-fmu.mos" style="text;html=1;strokeColor=none;fillColor=none;align=center;verticalAlign=top;whiteSpace=wrap;rounded=0;" vertex="1" parent="1">
          <mxGeometry x="530" y="367" width="100" height="30" as="geometry" />
        </mxCell>
        <mxCell id="a6QktLKJx5Bc6dMt5H6x-6" style="edgeStyle=orthogonalEdgeStyle;rounded=0;orthogonalLoop=1;jettySize=auto;html=1;exitX=0;exitY=0.433;exitDx=0;exitDy=0;entryX=1;entryY=0.5;entryDx=0;entryDy=0;exitPerimeter=0;" edge="1" parent="1" source="a6QktLKJx5Bc6dMt5H6x-5" target="TuAtHYuRZ2ULCIViFn6H-1">
          <mxGeometry relative="1" as="geometry">
            <mxPoint x="461" y="438" as="sourcePoint" />
            <mxPoint x="461" y="413" as="targetPoint" />
            <Array as="points">
              <mxPoint x="530" y="380" />
              <mxPoint x="530" y="380" />
            </Array>
          </mxGeometry>
        </mxCell>
      </root>
    </mxGraphModel>
  </diagram>
</mxfile>
